<svg width="240" height="240" viewBox="0 0 240 240" fill="none" xmlns="http://www.w3.org/2000/svg">
<rect width="240" height="240" rx="120" fill="white"/>
<path d="M168.227 59.6855L174.323 78.4798C174.877 80.1863 174.279 82.0701 172.818 83.1339L119.996 121.547L168.227 59.6855Z" fill="#FCA326"/>
<path d="M71.7945 59.6855L65.6765 78.4798C65.1229 80.1863 65.7207 82.0701 67.182 83.1339L119.996 121.546L71.7945 59.6855Z" fill="#FCA326"/>
<path d="M119.996 121.547L140.087 59.6855H168.227L119.996 121.547Z" fill="#FC6D26"/>
<path d="M119.997 121.547L71.7946 59.6855H99.9349L119.997 121.547Z" fill="#FC6D26"/>
<path d="M168.227 59.6856H140.087L152.176 22.4295C152.795 20.5235 155.497 20.5235 156.139 22.4295L168.227 59.6856Z" fill="#E24329"/>
<path d="M71.7946 59.6856H99.9349L87.8241 22.4295C87.2043 20.5235 84.503 20.5235 83.8608 22.4295L71.7946 59.6856Z" fill="#E24329"/>
<path d="M119.996 121.547L140.087 59.6855H99.9347L119.996 121.547Z" fill="#E24329"/>
<path d="M91.6673 219.301C90.5445 219.301 89.4887 219.125 88.5 218.773C87.528 218.404 86.6817 217.867 85.9611 217.162C85.2405 216.457 84.6707 215.584 84.2517 214.544C83.8495 213.487 83.6484 212.27 83.6484 210.894C83.6484 209.535 83.8579 208.327 84.2769 207.27C84.6958 206.196 85.2656 205.29 85.9862 204.551C86.7236 203.813 87.5783 203.251 88.5503 202.865C89.5223 202.479 90.5529 202.286 91.6422 202.286C92.832 202.286 93.8543 202.504 94.709 202.94C95.5637 203.377 96.2591 203.872 96.7954 204.425L94.8598 206.791C94.4409 206.422 93.9968 206.112 93.5275 205.86C93.0583 205.608 92.4717 205.483 91.7679 205.483C91.1311 205.483 90.5445 205.608 90.0083 205.86C89.4887 206.095 89.0363 206.439 88.6508 206.892C88.2654 207.345 87.9637 207.899 87.7459 208.553C87.5448 209.208 87.4442 209.946 87.4442 210.768C87.4442 212.463 87.8213 213.781 88.5754 214.72C89.3463 215.643 90.5026 216.105 92.0444 216.105C92.3796 216.105 92.7064 216.063 93.0248 215.979C93.3432 215.895 93.6029 215.769 93.804 215.601V212.782H91.0892V209.762H97.0719V217.313C96.5021 217.867 95.748 218.337 94.8095 218.722C93.8711 219.108 92.8237 219.301 91.6673 219.301Z" fill="#8C929D"/>
<path d="M100.43 218.999V202.588H104.125V218.999H100.43Z" fill="#8C929D"/>
<path d="M111.435 218.999V205.709H106.935V202.588H119.655V205.709H115.155V218.999H111.435Z" fill="#8C929D"/>
<path d="M122.475 218.999V202.588H126.17V215.878H132.655V218.999H122.475Z" fill="#8C929D"/>
<path d="M140.889 210.693L140.487 212.203H143.981L143.604 210.693C143.37 209.871 143.143 208.998 142.926 208.075C142.708 207.152 142.49 206.263 142.272 205.407H142.171C141.97 206.28 141.761 207.177 141.543 208.1C141.342 209.006 141.124 209.871 140.889 210.693ZM134.957 218.999L140.085 202.588H144.534L149.662 218.999H145.741L144.736 215.098H139.733L138.728 218.999H134.957Z" fill="#8C929D"/>
<path d="M152.223 218.999V202.588H157.829C158.683 202.588 159.471 202.655 160.192 202.789C160.929 202.907 161.566 203.125 162.102 203.444C162.655 203.762 163.082 204.182 163.384 204.702C163.702 205.222 163.862 205.877 163.862 206.666C163.862 207.035 163.811 207.404 163.711 207.773C163.61 208.142 163.468 208.486 163.283 208.805C163.099 209.124 162.873 209.409 162.605 209.661C162.353 209.913 162.06 210.097 161.725 210.215V210.315C162.144 210.416 162.529 210.575 162.881 210.794C163.233 210.995 163.543 211.255 163.811 211.574C164.079 211.893 164.289 212.27 164.44 212.707C164.591 213.126 164.666 213.613 164.666 214.167C164.666 215.006 164.498 215.727 164.163 216.331C163.845 216.935 163.392 217.439 162.806 217.841C162.236 218.227 161.566 218.521 160.795 218.722C160.024 218.907 159.194 218.999 158.306 218.999H152.223ZM155.918 209.157H157.653C158.558 209.157 159.211 208.981 159.613 208.629C160.032 208.276 160.242 207.807 160.242 207.219C160.242 206.582 160.032 206.129 159.613 205.86C159.194 205.592 158.549 205.457 157.678 205.457H155.918V209.157ZM155.918 216.13H158.005C160.032 216.13 161.046 215.392 161.046 213.915C161.046 213.193 160.795 212.681 160.292 212.379C159.789 212.061 159.027 211.901 158.005 211.901H155.918V216.13Z" fill="#8C929D"/>
<g clip-path="url(#clip0_2_56)">
<path d="M71.6602 195.797V171.67C71.0801 172.594 70.1705 174.098 69.3364 174.856C67.828 176.228 65.8491 177.428 63.5391 177.428V172.014C63.9361 172.014 64.6642 171.787 65.6936 170.851C66.6891 169.946 67.7095 168.602 68.637 166.99C70.5367 163.688 71.6602 159.957 71.6602 157.898H65.8594V152.484H71.6602V142.816H77.0742V152.484H82.875V157.898H77.0742C77.0742 161.274 78.4849 164.126 80.3323 166.154C82.2912 168.305 84.3272 169.113 85.1953 169.113V174.527C82.4858 174.527 79.4669 172.899 77.0742 170.57V195.797H71.6602Z" fill="#8C929D"/>
<path fill-rule="evenodd" clip-rule="evenodd" d="M82.875 150.551H88.2891V160.605C88.2891 165.828 87.5118 173.696 85.6946 180.177C84.7817 183.434 83.6586 186.147 82.3733 187.987C81.0805 189.838 79.9463 190.383 79.0078 190.383V195.797C82.4682 195.797 85.0321 193.635 86.8118 191.087C88.5991 188.528 89.9232 185.15 90.9077 181.639C91.7124 178.768 92.3252 175.679 92.7689 172.647C93.9641 175.301 95.3575 177.917 96.8981 180.367C97.7002 181.643 98.5514 182.888 99.4468 184.083C97.9184 185.616 96.3668 186.932 94.8828 187.964C92.4047 189.687 90.4534 190.383 89.2559 190.383V195.797C92.1189 195.797 95.1949 194.341 97.9738 192.409C99.6382 191.251 101.321 189.836 102.952 188.232C103.936 189.257 104.957 190.207 106.011 191.064C109.438 193.848 113.408 195.797 117.68 195.797V190.383C115.087 190.383 112.29 189.19 109.426 186.862C108.468 186.084 107.525 185.196 106.604 184.216C111.664 178.012 115.939 169.809 115.939 162.152V161.379C115.939 160.311 115.074 159.445 114.006 159.445H106.575L111.743 147.858C112.313 146.579 111.377 145.137 109.977 145.137H82.875V150.551ZM103.107 179.916C106.756 175.216 109.521 169.787 110.302 164.859H101.213C99.8122 164.859 98.8763 163.417 99.4466 162.138L104.614 150.551H93.7031V155.191C93.7031 160.888 96.6872 169.862 101.481 177.485C102.007 178.321 102.55 179.133 103.107 179.916Z" fill="#8C929D"/>
</g>
<path d="M130.023 159.983C130.47 161.816 130.841 163.859 131.125 166.145C131.081 166.44 130.89 167.037 130.322 167.922C129.7 168.891 128.791 169.949 127.728 170.935C126.666 171.92 125.522 172.765 124.475 173.348C123.363 173.968 122.631 174.141 122.32 174.141V179.555C123.992 179.555 125.691 178.869 127.111 178.078C128.596 177.25 130.085 176.132 131.409 174.905C131.526 174.796 131.643 174.686 131.759 174.574C131.874 177.127 131.918 179.327 131.838 181.229C131.727 183.857 131.383 185.679 130.811 186.956C130.287 188.126 129.553 188.89 128.398 189.426C127.136 190.011 125.235 190.383 122.32 190.383V195.797C125.593 195.797 128.393 195.396 130.675 194.337C133.064 193.229 134.717 191.479 135.752 189.169C136.739 186.966 137.126 184.34 137.247 181.457C137.37 178.554 137.229 175.146 137.011 171.282C136.662 165.068 135.801 160.03 134.501 155.883C137.208 152.96 139.644 149.447 140.904 146.087L135.834 144.186C135.12 146.091 133.817 148.222 132.207 150.249C130.615 147.183 128.679 144.755 126.458 142.744L122.823 146.756C124.865 148.605 126.726 151.006 128.216 154.466C127.113 155.439 126.026 156.249 125.031 156.843C123.664 157.659 122.753 157.898 122.32 157.898V163.313C124.208 163.313 126.137 162.488 127.806 161.492C128.542 161.052 129.285 160.545 130.023 159.983Z" fill="#8C929D"/>
<path d="M156.774 144.952C163.265 144.34 170.187 143.678 172.082 143.466L172.684 148.846C171.795 148.946 169.863 149.138 167.413 149.376C167.554 153.328 168.096 162.782 169.522 171.8C170.363 177.117 171.485 182.106 172.938 185.699C173.669 187.504 174.414 188.782 175.117 189.565C175.799 190.324 176.247 190.385 176.461 190.383V195.797C174.185 195.817 172.413 194.656 171.09 193.183C169.789 191.735 168.759 189.805 167.919 187.728C166.232 183.557 165.034 178.082 164.174 172.645C162.747 163.624 162.18 154.223 162.015 149.894C160.667 150.022 159.283 150.154 157.915 150.283C158.033 167.372 157.691 176.015 154.491 187.34L159.071 185.792C158.153 183.482 157.247 181.14 156.581 179.285L161.677 177.456C162.662 180.202 164.225 184.131 165.555 187.403C166.217 189.033 166.817 190.489 167.251 191.537C167.468 192.061 167.643 192.483 167.765 192.773C167.825 192.918 167.872 193.031 167.904 193.107L167.952 193.221L167.952 193.221C167.952 193.221 167.952 193.221 165.455 194.268C162.959 195.315 162.959 195.315 162.959 195.315L162.909 195.196C162.877 195.118 162.829 195.004 162.768 194.857C162.645 194.563 162.468 194.137 162.249 193.609C161.938 192.859 161.543 191.902 161.101 190.821L149.748 194.657C148.237 195.167 146.793 193.732 147.293 192.218L147.779 190.747C152.124 177.598 152.626 169.844 152.504 150.792C151.069 150.927 149.748 151.051 148.619 151.156C148.138 151.201 147.691 151.243 147.286 151.281C147.336 161.608 147.116 171.81 146.049 179.658C145.476 183.871 144.632 187.632 143.33 190.416C142.067 193.119 139.932 195.748 136.465 195.778L136.418 190.364C136.673 190.362 137.439 190.235 138.426 188.123C139.376 186.092 140.133 182.981 140.684 178.929C141.779 170.879 141.952 160.009 141.855 148.84L141.849 148.128C141.84 147.124 142.602 146.279 143.603 146.186C147.994 145.778 152.384 145.367 156.774 144.952Z" fill="#8C929D"/>
<defs>
<clipPath id="clip0_2_56">
<rect width="54.1406" height="54.1406" fill="white" transform="translate(63.5391 141.656)"/>
</clipPath>
</defs>
</svg>
